<svg width="1380" height="768" viewBox="0 0 1380 768" fill="none" xmlns="http://www.w3.org/2000/svg">
<path d="M457.717 691.286C455.929 693.39 452.773 693.646 450.669 691.858C448.565 690.069 448.309 686.914 450.098 684.81C451.886 682.706 455.042 682.45 457.146 684.238C459.25 686.027 459.505 689.182 457.717 691.286Z" fill="#F42CA4" fill-opacity="0.5"/>
<path d="M469.146 701.001C467.357 703.105 464.202 703.361 462.098 701.572C459.994 699.784 459.738 696.628 461.526 694.524C463.315 692.42 466.47 692.165 468.574 693.953C470.678 695.741 470.934 698.897 469.146 701.001Z" fill="#F42CA4" fill-opacity="0.5"/>
<path d="M480.575 710.716C478.787 712.82 475.632 713.076 473.528 711.287C471.423 709.499 471.168 706.343 472.956 704.239C474.745 702.135 477.9 701.879 480.004 703.668C482.108 705.456 482.364 708.612 480.575 710.716Z" fill="#F42CA4" fill-opacity="0.5"/>
<path d="M492.004 720.431C490.216 722.535 487.06 722.79 484.956 721.002C482.852 719.214 482.596 716.058 484.385 713.954C486.173 711.85 489.329 711.594 491.433 713.383C493.537 715.171 493.793 718.326 492.004 720.431Z" fill="#F42CA4" fill-opacity="0.5"/>
<path d="M503.433 730.145C501.645 732.249 498.489 732.505 496.385 730.717C494.281 728.928 494.026 725.773 495.814 723.669C497.602 721.565 500.758 721.309 502.862 723.097C504.966 724.886 505.222 728.041 503.433 730.145Z" fill="#F42CA4" fill-opacity="0.5"/>
<path d="M448.002 702.715C446.214 704.819 443.058 705.075 440.954 703.287C438.85 701.498 438.594 698.343 440.383 696.239C442.171 694.135 445.327 693.879 447.431 695.667C449.535 697.456 449.791 700.611 448.002 702.715Z" fill="#F42CA4" fill-opacity="0.5"/>
<path d="M459.431 712.43C457.642 714.534 454.487 714.79 452.383 713.001C450.279 711.213 450.023 708.058 451.812 705.954C453.6 703.849 456.755 703.594 458.859 705.382C460.964 707.171 461.219 710.326 459.431 712.43Z" fill="#F42CA4" fill-opacity="0.5"/>
<path d="M470.861 722.145C469.072 724.249 465.917 724.505 463.813 722.716C461.709 720.928 461.453 717.772 463.241 715.668C465.03 713.564 468.185 713.308 470.289 715.097C472.393 716.885 472.649 720.041 470.861 722.145Z" fill="#F42CA4" fill-opacity="0.5"/>
<path d="M482.289 731.86C480.501 733.964 477.345 734.219 475.241 732.431C473.137 730.643 472.882 727.487 474.67 725.383C476.458 723.279 479.614 723.023 481.718 724.812C483.822 726.6 484.078 729.756 482.289 731.86Z" fill="#F42CA4" fill-opacity="0.5"/>
<path d="M493.718 741.574C491.93 743.678 488.774 743.934 486.67 742.146C484.566 740.357 484.31 737.202 486.099 735.098C487.887 732.994 491.043 732.738 493.147 734.526C495.251 736.315 495.506 739.47 493.718 741.574Z" fill="#F42CA4" fill-opacity="0.5"/>
<path d="M438.287 714.144C436.499 716.248 433.343 716.504 431.239 714.716C429.135 712.927 428.88 709.772 430.668 707.668C432.456 705.564 435.612 705.308 437.716 707.096C439.82 708.885 440.076 712.04 438.287 714.144Z" fill="#F42CA4" fill-opacity="0.5"/>
<path d="M449.717 723.859C447.929 725.963 444.773 726.219 442.669 724.431C440.565 722.642 440.309 719.487 442.098 717.383C443.886 715.279 447.042 715.023 449.146 716.811C451.25 718.6 451.505 721.755 449.717 723.859Z" fill="#F42CA4" fill-opacity="0.5"/>
<path d="M461.146 733.574C459.357 735.678 456.202 735.934 454.098 734.145C451.994 732.357 451.738 729.201 453.526 727.097C455.315 724.993 458.47 724.737 460.574 726.526C462.678 728.314 462.934 731.47 461.146 733.574Z" fill="#F42CA4" fill-opacity="0.5"/>
<path d="M472.574 743.289C470.786 745.393 467.631 745.648 465.527 743.86C463.422 742.072 463.167 738.916 464.955 736.812C466.744 734.708 469.899 734.452 472.003 736.241C474.107 738.029 474.363 741.185 472.574 743.289Z" fill="#F42CA4" fill-opacity="0.5"/>
<path d="M484.004 753.003C482.216 755.107 479.06 755.363 476.956 753.575C474.852 751.786 474.596 748.631 476.385 746.527C478.173 744.423 481.329 744.167 483.433 745.955C485.537 747.744 485.793 750.899 484.004 753.003Z" fill="#F42CA4" fill-opacity="0.5"/>
<path d="M428.573 725.573C426.784 727.677 423.629 727.933 421.525 726.145C419.421 724.356 419.165 721.201 420.953 719.097C422.742 716.993 425.897 716.737 428.001 718.525C430.105 720.314 430.361 723.469 428.573 725.573Z" fill="#F42CA4" fill-opacity="0.5"/>
<path d="M440.002 735.288C438.214 737.392 435.058 737.648 432.954 735.86C430.85 734.071 430.594 730.916 432.383 728.812C434.171 726.708 437.327 726.452 439.431 728.24C441.535 730.029 441.791 733.184 440.002 735.288Z" fill="#F42CA4" fill-opacity="0.5"/>
<path d="M451.431 745.003C449.642 747.107 446.487 747.363 444.383 745.574C442.279 743.786 442.023 740.63 443.812 738.526C445.6 736.422 448.755 736.167 450.859 737.955C452.964 739.743 453.219 742.899 451.431 745.003Z" fill="#F42CA4" fill-opacity="0.5"/>
<path d="M462.86 754.718C461.071 756.822 457.916 757.078 455.812 755.289C453.708 753.501 453.452 750.345 455.24 748.241C457.029 746.137 460.184 745.881 462.288 747.67C464.392 749.458 464.648 752.614 462.86 754.718Z" fill="#F42CA4" fill-opacity="0.5"/>
<path d="M474.289 764.432C472.501 766.536 469.345 766.792 467.241 765.004C465.137 763.215 464.882 760.06 466.67 757.956C468.458 755.852 471.614 755.596 473.718 757.384C475.822 759.173 476.078 762.328 474.289 764.432Z" fill="#F42CA4" fill-opacity="0.5"/>
<path d="M418.858 737.002C417.069 739.106 413.914 739.362 411.81 737.574C409.706 735.785 409.45 732.63 411.238 730.526C413.027 728.422 416.182 728.166 418.286 729.954C420.39 731.743 420.646 734.898 418.858 737.002Z" fill="#F42CA4" fill-opacity="0.5"/>
<path d="M430.287 746.717C428.499 748.821 425.343 749.077 423.239 747.289C421.135 745.5 420.88 742.345 422.668 740.241C424.456 738.137 427.612 737.881 429.716 739.669C431.82 741.458 432.076 744.613 430.287 746.717Z" fill="#F42CA4" fill-opacity="0.5"/>
<path d="M441.716 756.432C439.928 758.536 436.772 758.792 434.668 757.003C432.564 755.215 432.308 752.059 434.097 749.955C435.885 747.851 439.041 747.596 441.145 749.384C443.249 751.172 443.505 754.328 441.716 756.432Z" fill="#F42CA4" fill-opacity="0.5"/>
<path d="M453.145 766.147C451.356 768.251 448.201 768.507 446.097 766.718C443.993 764.93 443.737 761.774 445.525 759.67C447.314 757.566 450.469 757.31 452.573 759.099C454.677 760.887 454.933 764.043 453.145 766.147Z" fill="#F42CA4" fill-opacity="0.5"/>
<path d="M464.574 775.861C462.786 777.966 459.631 778.221 457.527 776.433C455.422 774.644 455.167 771.489 456.955 769.385C458.744 767.281 461.899 767.025 464.003 768.814C466.107 770.602 466.363 773.757 464.574 775.861Z" fill="#F42CA4" fill-opacity="0.5"/>
<path d="M9.85714 200.929C9.85714 203.651 7.65055 205.857 4.92857 205.857C2.2066 205.857 0 203.651 0 200.929C0 198.207 2.2066 196 4.92857 196C7.65055 196 9.85714 198.207 9.85714 200.929Z" fill="#2694E3" fill-opacity="0.5"/>
<path d="M24.6433 200.929C24.6433 203.651 22.4367 205.857 19.7147 205.857C16.9927 205.857 14.7861 203.651 14.7861 200.929C14.7861 198.207 16.9927 196 19.7147 196C22.4367 196 24.6433 198.207 24.6433 200.929Z" fill="#2694E3" fill-opacity="0.5"/>
<path d="M39.4284 200.929C39.4284 203.651 37.2218 205.857 34.4999 205.857C31.7779 205.857 29.5713 203.651 29.5713 200.929C29.5713 198.207 31.7779 196 34.4999 196C37.2218 196 39.4284 198.207 39.4284 200.929Z" fill="#2694E3" fill-opacity="0.5"/>
<path d="M54.2146 200.929C54.2146 203.651 52.008 205.857 49.286 205.857C46.564 205.857 44.3574 203.651 44.3574 200.929C44.3574 198.207 46.564 196 49.286 196C52.008 196 54.2146 198.207 54.2146 200.929Z" fill="#2694E3" fill-opacity="0.5"/>
<path d="M68.9997 200.929C68.9997 203.651 66.7931 205.857 64.0711 205.857C61.3492 205.857 59.1426 203.651 59.1426 200.929C59.1426 198.207 61.3492 196 64.0711 196C66.7931 196 68.9997 198.207 68.9997 200.929Z" fill="#2694E3" fill-opacity="0.5"/>
<path d="M9.85714 215.714C9.85714 218.436 7.65055 220.643 4.92857 220.643C2.2066 220.643 0 218.436 0 215.714C0 212.992 2.2066 210.786 4.92857 210.786C7.65055 210.786 9.85714 212.992 9.85714 215.714Z" fill="#2694E3" fill-opacity="0.5"/>
<path d="M24.6433 215.714C24.6433 218.436 22.4367 220.643 19.7147 220.643C16.9927 220.643 14.7861 218.436 14.7861 215.714C14.7861 212.992 16.9927 210.786 19.7147 210.786C22.4367 210.786 24.6433 212.992 24.6433 215.714Z" fill="#2694E3" fill-opacity="0.5"/>
<path d="M39.4284 215.714C39.4284 218.436 37.2218 220.643 34.4999 220.643C31.7779 220.643 29.5713 218.436 29.5713 215.714C29.5713 212.992 31.7779 210.786 34.4999 210.786C37.2218 210.786 39.4284 212.992 39.4284 215.714Z" fill="#2694E3" fill-opacity="0.5"/>
<path d="M54.2146 215.714C54.2146 218.436 52.008 220.643 49.286 220.643C46.564 220.643 44.3574 218.436 44.3574 215.714C44.3574 212.992 46.564 210.786 49.286 210.786C52.008 210.786 54.2146 212.992 54.2146 215.714Z" fill="#2694E3" fill-opacity="0.5"/>
<path d="M68.9997 215.714C68.9997 218.436 66.7931 220.643 64.0711 220.643C61.3492 220.643 59.1426 218.436 59.1426 215.714C59.1426 212.992 61.3492 210.786 64.0711 210.786C66.7931 210.786 68.9997 212.992 68.9997 215.714Z" fill="#2694E3" fill-opacity="0.5"/>
<path d="M9.85714 230.5C9.85714 233.222 7.65055 235.429 4.92857 235.429C2.2066 235.429 0 233.222 0 230.5C0 227.778 2.2066 225.571 4.92857 225.571C7.65055 225.571 9.85714 227.778 9.85714 230.5Z" fill="#2694E3" fill-opacity="0.5"/>
<path d="M24.6433 230.5C24.6433 233.222 22.4367 235.429 19.7147 235.429C16.9927 235.429 14.7861 233.222 14.7861 230.5C14.7861 227.778 16.9927 225.571 19.7147 225.571C22.4367 225.571 24.6433 227.778 24.6433 230.5Z" fill="#2694E3" fill-opacity="0.5"/>
<path d="M39.4284 230.5C39.4284 233.222 37.2218 235.429 34.4999 235.429C31.7779 235.429 29.5713 233.222 29.5713 230.5C29.5713 227.778 31.7779 225.571 34.4999 225.571C37.2218 225.571 39.4284 227.778 39.4284 230.5Z" fill="#2694E3" fill-opacity="0.5"/>
<path d="M54.2146 230.5C54.2146 233.222 52.008 235.429 49.286 235.429C46.564 235.429 44.3574 233.222 44.3574 230.5C44.3574 227.778 46.564 225.571 49.286 225.571C52.008 225.571 54.2146 227.778 54.2146 230.5Z" fill="#2694E3" fill-opacity="0.5"/>
<path d="M68.9997 230.5C68.9997 233.222 66.7931 235.429 64.0711 235.429C61.3492 235.429 59.1426 233.222 59.1426 230.5C59.1426 227.778 61.3492 225.571 64.0711 225.571C66.7931 225.571 68.9997 227.778 68.9997 230.5Z" fill="#2694E3" fill-opacity="0.5"/>
<path d="M9.85714 245.286C9.85714 248.008 7.65055 250.214 4.92857 250.214C2.2066 250.214 0 248.008 0 245.286C0 242.564 2.2066 240.357 4.92857 240.357C7.65055 240.357 9.85714 242.564 9.85714 245.286Z" fill="#2694E3" fill-opacity="0.5"/>
<path d="M24.6433 245.286C24.6433 248.008 22.4367 250.214 19.7147 250.214C16.9927 250.214 14.7861 248.008 14.7861 245.286C14.7861 242.564 16.9927 240.357 19.7147 240.357C22.4367 240.357 24.6433 242.564 24.6433 245.286Z" fill="#2694E3" fill-opacity="0.5"/>
<path d="M39.4284 245.286C39.4284 248.008 37.2218 250.214 34.4999 250.214C31.7779 250.214 29.5713 248.008 29.5713 245.286C29.5713 242.564 31.7779 240.357 34.4999 240.357C37.2218 240.357 39.4284 242.564 39.4284 245.286Z" fill="#2694E3" fill-opacity="0.5"/>
<path d="M54.2146 245.286C54.2146 248.008 52.008 250.214 49.286 250.214C46.564 250.214 44.3574 248.008 44.3574 245.286C44.3574 242.564 46.564 240.357 49.286 240.357C52.008 240.357 54.2146 242.564 54.2146 245.286Z" fill="#2694E3" fill-opacity="0.5"/>
<path d="M68.9997 245.286C68.9997 248.008 66.7931 250.214 64.0711 250.214C61.3492 250.214 59.1426 248.008 59.1426 245.286C59.1426 242.564 61.3492 240.357 64.0711 240.357C66.7931 240.357 68.9997 242.564 68.9997 245.286Z" fill="#2694E3" fill-opacity="0.5"/>
<path d="M9.85714 260.071C9.85714 262.793 7.65055 265 4.92857 265C2.2066 265 0 262.793 0 260.071C0 257.349 2.2066 255.143 4.92857 255.143C7.65055 255.143 9.85714 257.349 9.85714 260.071Z" fill="#2694E3" fill-opacity="0.5"/>
<path d="M24.6433 260.071C24.6433 262.793 22.4367 265 19.7147 265C16.9927 265 14.7861 262.793 14.7861 260.071C14.7861 257.349 16.9927 255.143 19.7147 255.143C22.4367 255.143 24.6433 257.349 24.6433 260.071Z" fill="#2694E3" fill-opacity="0.5"/>
<path d="M39.4284 260.071C39.4284 262.793 37.2218 265 34.4999 265C31.7779 265 29.5713 262.793 29.5713 260.071C29.5713 257.349 31.7779 255.143 34.4999 255.143C37.2218 255.143 39.4284 257.349 39.4284 260.071Z" fill="#2694E3" fill-opacity="0.5"/>
<path d="M54.2146 260.071C54.2146 262.793 52.008 265 49.286 265C46.564 265 44.3574 262.793 44.3574 260.071C44.3574 257.349 46.564 255.143 49.286 255.143C52.008 255.143 54.2146 257.349 54.2146 260.071Z" fill="#2694E3" fill-opacity="0.5"/>
<path d="M68.9997 260.071C68.9997 262.793 66.7931 265 64.0711 265C61.3492 265 59.1426 262.793 59.1426 260.071C59.1426 257.349 61.3492 255.143 64.0711 255.143C66.7931 255.143 68.9997 257.349 68.9997 260.071Z" fill="#2694E3" fill-opacity="0.5"/>
<path d="M1311 437C1311 459.091 1293.09 477 1271 477C1248.91 477 1231 459.091 1231 437C1231 414.909 1248.91 397 1271 397C1293.09 397 1311 414.909 1311 437Z" fill="#E3266A" fill-opacity="0.6"/>
<path d="M72.6899 555.567L72.6899 600.666L33.6324 578.117L72.6899 555.567Z" fill="#A42051"/>
<path fill-rule="evenodd" clip-rule="evenodd" d="M1419.44 32.1585C1429.25 43.6031 1444.1 52.9254 1445.87 67.897C1447.63 82.8611 1434.14 94.8298 1428.47 108.791C1423.06 122.105 1422.24 137.163 1413.18 148.316C1403.23 160.559 1390.62 173.864 1374.87 174.725C1359.03 175.592 1348.84 157.119 1333.61 152.667C1316.92 147.788 1292.61 161.933 1282.56 147.742C1272.09 132.968 1290.05 113.235 1293.01 95.366C1294.91 83.9208 1294.58 72.749 1296.85 61.3731C1299.49 48.171 1298.95 33.5507 1307.46 23.1128C1316.38 12.1612 1330.51 7.10576 1344.13 3.35417C1358.62 -0.636756 1374.34 -4.54434 1388.38 0.823599C1402.35 6.16949 1409.7 20.7985 1419.44 32.1585Z" fill="#F23970" fill-opacity="0.4"/>
<path fill-rule="evenodd" clip-rule="evenodd" d="M535.132 216.35C550.231 234.055 571.028 250.251 577.079 270.552C583.128 290.844 569.526 303.225 566.108 320.265C562.849 336.515 565.734 356.267 557.393 368.708C548.237 382.366 536.076 396.747 516.801 393.819C497.413 390.874 480.035 363.756 460.036 353.921C438.11 343.139 411.676 355.61 395.565 334.202C378.789 311.913 395.931 290.396 394.975 267.474C394.363 252.792 391.069 237.898 390.945 223.406C390.801 206.588 386.356 187.068 394.188 175.43C402.407 163.218 418.594 160.168 434.483 158.714C451.386 157.167 469.833 156.048 488.59 166.789C507.27 177.486 520.145 198.776 535.132 216.35Z" fill="#2694E3" fill-opacity="0.5"/>
</svg>
